{"title":"MTV Roadies X1 Season 11 - Episode 3 - Chandigarh Auditions HQ 4","uid":9589870,"size":336087965,"categoryP":"video","categoryS":"tv_shows","magnet":"?xt=urn:btih:ed1ef513d6ba9299715dc5790aa32029085f14d8&amp;dn=MTV+Roadies+X1+Season+11+-+Episode+3+-+Chandigarh+Auditions+HQ+4&amp;tr=udp%3A%2F%2Ftracker.openbittorrent.com%3A80&amp;tr=udp%3A%2F%2Fopen.demonii.com%3A1337&amp;tr=udp%3A%2F%2Ftracker.coppersurfer.tk%3A6969&amp;tr=udp%3A%2F%2Fexodus.desync.com%3A6969","seeders":0,"leechers":1,"uploader":"ashish.p","files":1,"time":1391886754,"description":"General \n\nComplete name : MTV Roadies X1 Season 11 - Episode 3 - Chandigarh Auditions HQ 480p -AshishRocks- { DAKU RG } \nFormat : MPEG-4 \nFormat profile : Base Media \nCodec ID : isom \nFile size : 321 MiB \nDuration : 44mn 30s \nOverall bit rate mode : Variable \nOverall bit rate : 1 007 Kbps \nEncoded date : UTC 2014-02-07 12:03:20 \nTagged date : UTC 2014-02-07 12:03:20 \n\nVideo \n\nID : 1 \nFormat : AVC \nFormat/Info : Advanced Video Codec \nFormat profile : &lt;a class=&quot;__cf_email__&quot; href=&quot;/cdn-cgi/l/email-protection&quot; data-cfemail=&quot;6b260a02052b2758455b&quot;&gt;[email&amp;#160;protected]&lt;/a&gt;&lt;script cf-hash='f9e31' type=&quot;text/javascript&quot;&gt;\n/* &lt;![CDATA[ */!function(){try{var t=&quot;currentScript&quot;in document?document.currentScript:function(){for(var t=document.getElementsByTagName(&quot;script&quot;),e=t.length;e--;)if(t[e].getAttribute(&quot;cf-hash&quot;))return t[e]}();if(t&amp;&amp;t.previousSibling){var e,r,n,i,c=t.previousSibling,a=c.getAttribute(&quot;data-cfemail&quot;);if(a){for(e=&quot;&quot;,r=parseInt(a.substr(0,2),16),n=2;a.length-n;n+=2)i=parseInt(a.substr(n,2),16)^r,e+=String.fromCharCode(i);e=document.createTextNode(e),c.parentNode.replaceChild(e,c)}}}catch(u){}}();/* ]]&gt; */&lt;/script&gt; \nFormat settings, CABAC : Yes \nFormat settings, ReFrames : 3 frames \nCodec ID : avc1 \nCodec ID/Info : Advanced Video Coding \nDuration : 44mn 30s \nBit rate : 878 Kbps \nWidth : 854 pixels \nHeight : 480 pixels \nDisplay aspect ratio : 16:9 \nOriginal display aspect ratio : 16:9 \nFrame rate mode : Constant \nFrame rate : 25.000 fps \nColor space : YUV \nChroma subsampling : 4:2:0 \nBit depth : 8 bits \nScan type : Progressive \nBits/(Pixel*Frame) : 0.086 \nStream size : 280 MiB (87%) \nEncoded date : UTC 2014-02-07 12:03:20 \nTagged date : UTC 2014-02-07 12:03:20 \n\nAudio \n\nID : 2 \nFormat : AAC \nFormat/Info : Advanced Audio Codec \nFormat profile : LC \nCodec ID : 40 \nDuration : 44mn 30s \nBit rate mode : Variable \nBit rate : 126 Kbps \nChannel(s) : 2 channels \nChannel positions : Front: L R \nSampling rate : 44.1 KHz \nCompression mode : Lossy \nStream size : 40.0 MiB (12%) \nEncoded date : UTC 2014-02-07 12:03:10 \nTagged date : UTC 2014-02-07 12:03:10 \n","torrent":{"xt":"urn:btih:ed1ef513d6ba9299715dc5790aa32029085f14d8","amp;dn":"MTV+Roadies+X1+Season+11+-+Episode+3+-+Chandigarh+Auditions+HQ+4","amp;tr":["udp%3A%2F%2Ftracker.openbittorrent.com%3A80","udp%3A%2F%2Fopen.demonii.com%3A1337","udp%3A%2F%2Ftracker.coppersurfer.tk%3A6969","udp%3A%2F%2Fexodus.desync.com%3A6969"],"infoHash":"ed1ef513d6ba9299715dc5790aa32029085f14d8","infoHashBuffer":{"type":"Buffer","data":[237,30,245,19,214,186,146,153,113,93,197,121,10,163,32,41,8,95,20,216]},"announce":[],"urlList":[]}}